# xmcd
#
# Track frame offsets:
#	150
#	19104
#	36467
#	53380
#	68346
#	85254
#	99768
#	115416
#	134335
#	146865
#	165154
#
# Disc length: 2443
#
# Revision: 2
# Processed by: cddbd v1.5.1PL0 Copyright (c) Steve Scherf et al.
# Submitted via: audiograbber 1.82.00
# Normalized: r1:DSETVAR1
#
DISCID=8509890b
DTITLE=Various Artist - CDX 335
DYEAR=2004
DGENRE=Country
TTITLE0=George STRAIT - Desperatly
TTITLE1=Billy Ray CYRUS - Face of God
TTITLE2=John Arthur MARTINEZ - Home made of stone
TTITLE3=Jeff BATES - I wanna make you cry
TTITLE4=Deryl DODD - New Tony Lamas
TTITLE5=HOMETOWN NEWS - Revitalize
TTITLE6=BR 549 - That's what I get
TTITLE7=Caroline AUSTIN - Blue rendezvous
TTITLE8=K. WILDER - Silver ladies
TTITLE9=Michael CHAIN - Spirit of the free
TTITLE10=Kevin MAINES - We don't have a prayer
EXTD=
EXTT0=
EXTT1=
EXTT2=
EXTT3=
EXTT4=
EXTT5=
EXTT6=
EXTT7=
EXTT8=
EXTT9=
EXTT10=
PLAYORDER=
